<?xml version="1.0" encoding="UTF-8"?>
<svg version="1.1" xmlns="http://www.w3.org/2000/svg" width="500" height="500">
<path d="M0 0 C2 1 2 1 3.078125 4.2109375 C3.47193808 5.59805717 3.86234708 6.98614618 4.25 8.375 C6.35970469 15.49071675 9.08566161 21.6643227 13 28 C13.55816406 28.93585938 14.11632812 29.87171875 14.69140625 30.8359375 C17.95262022 36.1618574 21.42086367 40.90205588 25.71484375 45.44140625 C27 47 27 47 27 49 C27.66 49 28.32 49 29 49 C29 49.66 29 50.32 29 51 C29.66 51 30.32 51 31 51 C31 51.66 31 52.32 31 53 C31.57492188 53.26039063 32.14984375 53.52078125 32.7421875 53.7890625 C35.17038135 55.091381 37.02540836 56.59147591 39.125 58.375 C44.70275049 62.92724479 50.64122866 66.85350738 56.66650391 70.78662109 C62.52096987 74.6191643 67.88940687 78.21472078 72 84 C72 84.66 72 85.32 72 86 C72.66 86 73.32 86 74 86 C77 89.46153846 77 89.46153846 77 92 C77.66 92 78.32 92 79 92 C79 92.66 79 93.32 79 94 C79.66 94 80.32 94 81 94 C81 94.66 81 95.32 81 96 C81.59941406 96.26683594 82.19882813 96.53367187 82.81640625 96.80859375 C85.05126504 98.02797109 86.25618766 99.17604079 87.9375 101.0625 C95.80990638 109.12033779 105.16755443 114.89571199 116 118 C115.67 120.97 115.34 123.94 115 127 C115.32613281 126.16855469 115.65226563 125.33710938 115.98828125 124.48046875 C116.42527344 123.39378906 116.86226562 122.30710937 117.3125 121.1875 C117.74175781 120.10855469 118.17101562 119.02960938 118.61328125 117.91796875 C120.24611322 114.48212232 121.61792024 112.69103988 125 111 C126.93359586 110.85148156 128.87342097 110.77869167 130.8125 110.75 C131.85019531 110.72421875 132.88789063 110.6984375 133.95703125 110.671875 C137.51925253 111.05599129 139.22742742 111.73368214 142 114 C143.58203125 116.91796875 143.58203125 116.91796875 144.8125 120.1875 C145.23144531 121.27417969 145.65039062 122.36085938 146.08203125 123.48046875 C146.38496094 124.31191406 146.68789063 125.14335937 147 126 C146.67 123.36 146.34 120.72 146 118 C146.99966797 117.70609375 146.99966797 117.70609375 148.01953125 117.40625 C160.54457152 113.34218099 170.70757311 104.75680313 179.65625 95.23828125 C181 94 181 94 183 94 C183.268125 93.4225 183.53625 92.845 183.8125 92.25 C185.02929189 89.94449957 186.30333879 87.97943808 188 86 C188.66 86 189.32 86 190 86 C190.66 84.35 191.32 82.7 192 81 C192.66 81 193.32 81 194 81 C194.22816406 80.41573242 194.45632813 79.83146484 194.69140625 79.22949219 C196.3567621 76.39217323 198.21633571 75.16793658 200.9375 73.328125 C201.91460937 72.66425781 202.89171875 72.00039062 203.8984375 71.31640625 C204.92195312 70.63449219 205.94546875 69.95257813 207 69.25 C208.02351562 68.55261719 209.04703125 67.85523438 210.1015625 67.13671875 C217.72119618 62 217.72119618 62 220 62 C220 61.34 220 60.68 220 60 C221.65 59.34 223.3 58.68 225 58 C225 57.34 225 56.68 225 56 C230.47619048 51 230.47619048 51 233 51 C233 50.34 233 49.68 233 49 C233.66 49 234.32 49 235 49 C235.25265625 48.43539062 235.5053125 47.87078125 235.765625 47.2890625 C237.16835952 44.68778898 238.84896049 42.63708965 240.75 40.375 C250.31621841 28.55994182 255.86226179 15.53987338 260 1 C260.99 1 261.98 1 263 1 C265.96875088 13.45815101 266.15992073 24.66923731 260.125 36.1875 C259.77308594 36.88552734 259.42117188 37.58355469 259.05859375 38.30273438 C257.2842112 41.76904675 255.48438425 44.97655124 253 48 C253.33 47.67 253.66 47.34 254 47 C254.66 47 255.32 47 256 47 C256.23589844 46.44957031 256.47179687 45.89914063 256.71484375 45.33203125 C258.32264344 42.41453454 260.35604787 40.18400217 262.5625 37.6875 C267.13227871 32.40977466 270.729868 26.81350198 274.13110352 20.7253418 C275.03893023 19.12180134 276.01346015 17.55635166 277 16 C277.66 16 278.32 16 279 16 C279.98644089 32.44068155 276.76063742 42.23314204 266 55 C264.7934375 56.5159375 264.7934375 56.5159375 263.5625 58.0625 C263.046875 58.701875 262.53125 59.34125 262 60 C262.69867188 59.4946875 263.39734375 58.989375 264.1171875 58.46875 C265.02726562 57.8190625 265.93734375 57.169375 266.875 56.5 C268.23238281 55.52546875 268.23238281 55.52546875 269.6171875 54.53125 C272 53 272 53 274 53 C274 52.34 274 51.68 274 51 C274.66 51 275.32 51 276 51 C276 50.34 276 49.68 276 49 C277.42578125 47.4921875 277.42578125 47.4921875 279.3125 45.875 C280.23482422 45.06675781 280.23482422 45.06675781 281.17578125 44.2421875 C283 43 283 43 286 43 C284.58423515 54.30498798 280.91172783 62.67055854 272 70 C269.40272342 71.79986711 266.75231411 73.44869568 264 75 C269.10646549 73.48186161 273.80536524 71.29418528 278.609375 69.0234375 C281 68 281 68 283 68 C282.09683072 75.76725577 278.5994483 79.87710049 273 85 C272.34 85 271.68 85 271 85 C271 85.66 271 86.32 271 87 C266.71 88.65 262.42 90.3 258 92 C262.62 91.67 267.24 91.34 272 91 C270.70319434 97.48402832 268.13717453 99.42983096 262.9375 103.25 C258.11510023 106.12291901 254.60836357 106.10785315 249 106 C249.33 106.66 249.66 107.32 250 108 C252.02463255 108.65213292 252.02463255 108.65213292 254 109 C252.91574242 112.79490154 251.23944554 115.50922148 248.12890625 117.99609375 C243.47774663 120.18939287 238.0613796 119.91739588 233 120 C235.97 120.66 238.94 121.32 242 122 C242 123.32 242 124.64 242 126 C241.34 126 240.68 126 240 126 C240 126.66 240 127.32 240 128 C234.62669111 131.39366878 230.13053511 131.32712342 224 131 C225.98 131.99 227.96 132.98 230 134 C230 134.99 230 135.98 230 137 C225.00398694 140.26270241 222.12584189 141.47121861 216 141 C215.01 141 214.02 141 213 141 C214.32 142.32 215.64 143.64 217 145 C212.6822236 148.26466021 209.59315865 149.90012217 204 150 C200.5625 148.5625 200.5625 148.5625 198 147 C198.33 147.33 198.66 147.66 199 148 C199 148.66 199 149.32 199 150 C199.99 150.33 200.98 150.66 202 151 C202 151.99 202 152.98 202 154 C198.57905758 156.28062828 197.31812778 156.21925007 193.3125 156.125 C192.31863281 156.10695313 191.32476562 156.08890625 190.30078125 156.0703125 C189.54152344 156.04710937 188.78226563 156.02390625 188 156 C188.33 157.65 188.66 159.3 189 161 C184.66957545 163.23082477 181.71272535 163.0472723 177 162 C176.01 161.34 175.02 160.68 174 160 C174.99 162.475 174.99 162.475 176 165 C174 167 174 167 170.25 167.4375 C166.98396677 167.36016224 165.13341304 166.77311559 162.5625 164.75 C159.23552502 161.17958783 159.23552502 161.17958783 159 158 C158.01 158 157.02 158 156 158 C154.9936345 160.43504509 153.99473587 162.87270864 153 165.3125 C152.71382812 166.00279297 152.42765625 166.69308594 152.1328125 167.40429688 C150.91089256 170.41545674 150 172.71886984 150 176 C151.31321858 177.6825613 152.64613064 179.34997172 154 181 C154 181.66 154 182.32 154 183 C154.66 183 155.32 183 156 183 C161 188.47619048 161 188.47619048 161 191 C161.66 191 162.32 191 163 191 C163 191.66 163 192.32 163 193 C163.82757813 193.33644531 163.82757813 193.33644531 164.671875 193.6796875 C167.71211744 195.40385183 169.81425673 197.62515822 172.25 200.125 C173.14203125 201.03507813 174.0340625 201.94515625 174.953125 202.8828125 C175.96632813 203.93082031 175.96632813 203.93082031 177 205 C175.77887968 208.66336097 174.13279518 209.35042014 170.88671875 211.23046875 C169 212 169 212 165 212 C165 212.66 165 213.32 165 214 C163.75539217 214.67667998 162.50403104 215.34094719 161.25 216 C160.55390625 216.37125 159.8578125 216.7425 159.140625 217.125 C157 218 157 218 153 218 C152.67 218.66 152.34 219.32 152 220 C147.85130969 222.02587915 143.51069829 223.12291978 139 224 C138.38125 224.350625 137.7625 224.70125 137.125 225.0625 C133.95086535 226.46285352 131.43341436 226.295984 128 226 C125.98347806 225.0337499 123.98320018 224.03291676 122 223 C119.67182036 222.63239269 117.3381615 222.29758419 115 222 C112.0625 220.9375 112.0625 220.9375 110 220 C110 219.34 110 218.68 110 218 C108.453125 217.8453125 108.453125 217.8453125 106.875 217.6875 C103.04916055 217.00872203 100.36629975 215.88841205 97 214 C97 213.34 97 212.68 97 212 C95.948125 211.8453125 95.948125 211.8453125 94.875 211.6875 C91.53218852 210.88813204 88.93114425 209.7986567 86 208 C85.328125 205.89453125 85.328125 205.89453125 85 204 C85.60585937 203.46632813 86.21171875 202.93265625 86.8359375 202.3828125 C97.65264952 193.69751956 97.65264952 193.69751956 106 183 C106.66 183 107.32 183 108 183 C108 182.34 108 181.68 108 181 C108.66 181 109.32 181 110 181 C111.83181992 176.76391644 112.50728076 174.45258254 110.94140625 169.96875 C110.48636719 168.8240625 110.03132812 167.679375 109.5625 166.5 C107.03636364 160.10909091 107.03636364 160.10909091 106 157 C105.01 157.33 104.02 157.66 103 158 C102.71125 158.763125 102.4225 159.52625 102.125 160.3125 C100.65800085 163.81699797 99.27497543 165.07773181 96 167 C93.23872992 167.32274585 90.79588754 167.1895517 88 167 C86 163.25 86 163.25 86 161 C85.505 161.350625 85.01 161.70125 84.5 162.0625 C80.77302397 163.46011601 77.90197152 162.65032859 74 162 C73.505 159.525 73.505 159.525 73 157 C72.01 157 71.02 157 70 157 C63.44680851 156.29787234 63.44680851 156.29787234 60 154 C60.33 152.68 60.66 151.36 61 150 C61.66 150 62.32 150 63 150 C62.67 149.34 62.34 148.68 62 148 C61.505 148.350625 61.01 148.70125 60.5 149.0625 C56.87885316 150.42043006 53.6247886 150.14844787 50 149 C47 146.4375 47 146.4375 45 144 C45.66 144 46.32 144 47 144 C47 143.34 47 142.68 47 142 C49.5 140.375 49.5 140.375 52 139 C51.360625 139.33 50.72125 139.66 50.0625 140 C45.95269588 141.34197686 42.28355438 141.62374564 38 141 C34.4375 139.1875 34.4375 139.1875 32 137 C32 136.01 32 135.02 32 134 C33.98 133.01 35.96 132.02 38 131 C37.32453125 131.01160156 36.6490625 131.02320313 35.953125 131.03515625 C35.06109375 131.04417969 34.1690625 131.05320312 33.25 131.0625 C32.36828125 131.07410156 31.4865625 131.08570313 30.578125 131.09765625 C28.2181162 131.00826198 26.25501476 130.66912821 24 130 C24 129.34 24 128.68 24 128 C23.34 128 22.68 128 22 128 C22 127.34 22 126.68 22 126 C21.34 126 20.68 126 20 126 C19.67 125.01 19.34 124.02 19 123 C22.31395777 121.87024167 25.59702663 120.82115227 29 120 C28.13117188 119.97421875 27.26234375 119.9484375 26.3671875 119.921875 C14.32941176 119.32941176 14.32941176 119.32941176 10 115 C8.625 111.75 8.625 111.75 8 109 C10.475 108.01 10.475 108.01 13 107 C11.96552734 106.88785156 11.96552734 106.88785156 10.91015625 106.7734375 C3.77796531 105.77551778 -1.61735437 103.90804677 -7 99 C-10 94.27272727 -10 94.27272727 -10 91 C-3.07 91.495 -3.07 91.495 4 92 C2.515 91.46375 1.03 90.9275 -0.5 90.375 C-8.17096753 87.30444298 -16.45138665 81.97586416 -20.3125 74.4375 C-21 72 -21 72 -21 68 C-16.53202662 69.39878802 -12.36177921 71.13630772 -8.125 73.125 C-6.97257812 73.66382813 -5.82015625 74.20265625 -4.6328125 74.7578125 C-3.76398438 75.16773438 -2.89515625 75.57765625 -2 76 C-2 75.34 -2 74.68 -2 74 C-2.53625 73.93941406 -3.0725 73.87882812 -3.625 73.81640625 C-7.05453908 72.63750219 -9.38710765 70.36266373 -12 67.9375 C-12.5367334 67.44088867 -13.0734668 66.94427734 -13.62646484 66.43261719 C-19.51796317 60.80074421 -22.15035863 55.0151126 -24 47 C-24 45.68 -24 44.36 -24 43 C-19.60249328 43.50740462 -17.13051078 46.08293314 -14 49 C-14 49.66 -14 50.32 -14 51 C-13.34 51 -12.68 51 -12 51 C-12 51.66 -12 52.32 -12 53 C-11.319375 53.2475 -10.63875 53.495 -9.9375 53.75 C-6.43134917 55.24197908 -3.28379632 57.06835511 0 59 C-0.45890625 58.56429687 -0.9178125 58.12859375 -1.390625 57.6796875 C-5.15659605 54.0244803 -8.35708199 50.54581898 -11 46 C-11 45.34 -11 44.68 -11 44 C-11.66 44 -12.32 44 -13 44 C-13 42.68 -13 41.36 -13 40 C-13.66 40 -14.32 40 -15 40 C-17.15758273 34.75044832 -17.24042211 30.19189716 -17.125 24.625 C-17.11597656 23.79355469 -17.10695313 22.96210938 -17.09765625 22.10546875 C-17.0742622 20.07018663 -17.03839725 18.03505436 -17 16 C-12.83668369 17.3877721 -12.50251 19.39771381 -10.5 23.25 C-7.54379396 28.71306309 -4.22745375 33.53045296 -0.1875 38.25 C0.51439453 39.07226074 0.51439453 39.07226074 1.23046875 39.91113281 C3.36864512 42.35056958 5.28340734 44.18893823 8 46 C7.41992188 45.18208984 7.41992188 45.18208984 6.828125 44.34765625 C-1.18763754 32.74067337 -4.79119452 21.55827408 -2.5859375 7.328125 C-1.29959514 1.29959514 -1.29959514 1.29959514 0 0 Z M6 93 C10 94 10 94 10 94 Z M252 93 C252 93.33 252 93.66 252 94 C253.65 94 255.3 94 257 94 C257 93.67 257 93.34 257 93 C255.35 93 253.7 93 252 93 Z M129 124 C126.74249188 126.67492604 126.74249188 126.67492604 127.25 128.9375 C128.02063283 131.05674028 128.9356587 133.01322958 130 135 C130.66 135 131.32 135 132 135 C133.32 132.69 134.64 130.38 136 128 C134.77409808 125.92022703 134.77409808 125.92022703 133 124 C131.68 124 130.36 124 129 124 Z M113 129 C114 131 114 131 114 131 Z M148 129 C149 131 149 131 149 131 Z M124 210 C125 213 125 213 125 213 Z M123 215 C123 216.65 123 218.3 123 220 C123.33 220 123.66 220 124 220 C124 218.35 124 216.7 124 215 C123.67 215 123.34 215 123 215 Z " fill="#0B0B0B" transform="translate(119,141)"/>
<path d="M0 0 C0.33 0.99 0.66 1.98 1 3 C-3.455 6.96 -3.455 6.96 -8 11 C-8.66 10.67 -9.32 10.34 -10 10 C-6.7 6.7 -3.4 3.4 0 0 Z " fill="#737373" transform="translate(300,235)"/>
<path d="M0 0 C0.66 0.33 1.32 0.66 2 1 C2 2.32 2 3.64 2 5 C0.02 5.99 0.02 5.99 -2 7 C-1.125 1.125 -1.125 1.125 0 0 Z " fill="#515151" transform="translate(119,141)"/>
<path d="M0 0 C0.66 0.99 1.32 1.98 2 3 C-0.97 5.475 -0.97 5.475 -4 8 C-4.66 7.67 -5.32 7.34 -6 7 C-4.02 4.69 -2.04 2.38 0 0 Z " fill="#4E4E4E" transform="translate(383,177)"/>
<path d="" fill="#FFFFFF" transform="translate(0,0)"/>
<path d="" fill="#FFFFFF" transform="translate(0,0)"/>
<path d="" fill="#FFFFFF" transform="translate(0,0)"/>
<path d="" fill="#FFFFFF" transform="translate(0,0)"/>
<path d="" fill="#FFFFFF" transform="translate(0,0)"/>
<path d="" fill="#FFFFFF" transform="translate(0,0)"/>
<path d="" fill="#FFFFFF" transform="translate(0,0)"/>
<path d="" fill="#FFFFFF" transform="translate(0,0)"/>
<path d="" fill="#FFFFFF" transform="translate(0,0)"/>
<path d="" fill="#FFFFFF" transform="translate(0,0)"/>
<path d="" fill="#FFFFFF" transform="translate(0,0)"/>
<path d="" fill="#FFFFFF" transform="translate(0,0)"/>
<path d="" fill="#FFFFFF" transform="translate(0,0)"/>
<path d="" fill="#FFFFFF" transform="translate(0,0)"/>
<path d="" fill="#FFFFFF" transform="translate(0,0)"/>
<path d="" fill="#FFFFFF" transform="translate(0,0)"/>
<path d="" fill="#FFFFFF" transform="translate(0,0)"/>
<path d="" fill="#FFFFFF" transform="translate(0,0)"/>
<path d="" fill="#FFFFFF" transform="translate(0,0)"/>
<path d="" fill="#FFFFFF" transform="translate(0,0)"/>
<path d="" fill="#FFFFFF" transform="translate(0,0)"/>
<path d="" fill="#FFFFFF" transform="translate(0,0)"/>
<path d="" fill="#FFFFFF" transform="translate(0,0)"/>
<path d="" fill="#FFFFFF" transform="translate(0,0)"/>
<path d="" fill="#FFFFFF" transform="translate(0,0)"/>
<path d="" fill="#FFFFFF" transform="translate(0,0)"/>
<path d="" fill="#FFFFFF" transform="translate(0,0)"/>
<path d="" fill="#FFFFFF" transform="translate(0,0)"/>
<path d="" fill="#FFFFFF" transform="translate(0,0)"/>
<path d="" fill="#FFFFFF" transform="translate(0,0)"/>
<path d="" fill="#FFFFFF" transform="translate(0,0)"/>
<path d="" fill="#FFFFFF" transform="translate(0,0)"/>
<path d="" fill="#FFFFFF" transform="translate(0,0)"/>
<path d="" fill="#FFFFFF" transform="translate(0,0)"/>
<path d="" fill="#FFFFFF" transform="translate(0,0)"/>
<path d="" fill="#FFFFFF" transform="translate(0,0)"/>
<path d="" fill="#FFFFFF" transform="translate(0,0)"/>
<path d="" fill="#FFFFFF" transform="translate(0,0)"/>
<path d="" fill="#FFFFFF" transform="translate(0,0)"/>
<path d="" fill="#FFFFFF" transform="translate(0,0)"/>
<path d="" fill="#FFFFFF" transform="translate(0,0)"/>
<path d="" fill="#FFFFFF" transform="translate(0,0)"/>
<path d="" fill="#FFFFFF" transform="translate(0,0)"/>
<path d="" fill="#FFFFFF" transform="translate(0,0)"/>
<path d="" fill="#FFFFFF" transform="translate(0,0)"/>
<path d="" fill="#FFFFFF" transform="translate(0,0)"/>
<path d="" fill="#FFFFFF" transform="translate(0,0)"/>
<path d="" fill="#FFFFFF" transform="translate(0,0)"/>
<path d="" fill="#FFFFFF" transform="translate(0,0)"/>
<path d="" fill="#FFFFFF" transform="translate(0,0)"/>
<path d="" fill="#FFFFFF" transform="translate(0,0)"/>
<path d="" fill="#FFFFFF" transform="translate(0,0)"/>
<path d="" fill="#FFFFFF" transform="translate(0,0)"/>
<path d="" fill="#FFFFFF" transform="translate(0,0)"/>
<path d="" fill="#FFFFFF" transform="translate(0,0)"/>
<path d="" fill="#FFFFFF" transform="translate(0,0)"/>
<path d="" fill="#FFFFFF" transform="translate(0,0)"/>
<path d="" fill="#FFFFFF" transform="translate(0,0)"/>
<path d="" fill="#FFFFFF" transform="translate(0,0)"/>
<path d="" fill="#FFFFFF" transform="translate(0,0)"/>
<path d="" fill="#FFFFFF" transform="translate(0,0)"/>
<path d="" fill="#FFFFFF" transform="translate(0,0)"/>
<path d="" fill="#FFFFFF" transform="translate(0,0)"/>
<path d="" fill="#FFFFFF" transform="translate(0,0)"/>
<path d="" fill="#FFFFFF" transform="translate(0,0)"/>
<path d="" fill="#FFFFFF" transform="translate(0,0)"/>
</svg>
