<?xml version="1.0" encoding="UTF-8"?>
<svg version="1.1" xmlns="http://www.w3.org/2000/svg" width="1024" height="1024">
<path d="M0 0 C337.92 0 675.84 0 1024 0 C1024 337.92 1024 675.84 1024 1024 C686.08 1024 348.16 1024 0 1024 C0 686.08 0 348.16 0 0 Z " fill="#FDFDFD" transform="translate(0,0)"/>
<path d="M0 0 C2.35700791 2.35700791 2.5936189 3.7185246 3.37890625 6.921875 C12.10547212 40.43276006 29.82425213 69.63350979 53 95 C54.24330078 96.39992188 54.24330078 96.39992188 55.51171875 97.828125 C59.66967066 102.48910631 63.81366598 106.9644984 68.6015625 110.98046875 C70.62517086 112.68438654 72.60884208 114.41864663 74.5859375 116.17578125 C75.23860596 116.75215332 75.89127441 117.32852539 76.5637207 117.92236328 C77.86523118 119.07173677 79.16342898 120.22487589 80.45776367 121.38232422 C81.07111572 121.92002441 81.68446777 122.45772461 82.31640625 123.01171875 C82.85724854 123.49084717 83.39809082 123.96997559 83.95532227 124.46362305 C86.20663556 126.15526657 88.58827352 127.49351774 91.0433197 128.86561584 C94.64954041 130.95632 98.07823052 133.31632084 101.53125 135.6484375 C102.32599731 136.18344879 103.12074463 136.71846008 103.9395752 137.26968384 C105.6111421 138.39627003 107.28182348 139.52417114 108.95166016 140.65332031 C111.48915555 142.3676734 114.03151015 144.07464179 116.57421875 145.78125 C118.20603128 146.88236492 119.83755147 147.9839132 121.46875 149.0859375 C122.21999146 149.58926605 122.97123291 150.0925946 123.74523926 150.61117554 C130.99824083 155.53468726 137.0756536 160.64245946 142.3125 167.6875 C146.55255508 173.23841181 150.98647082 178.4376261 155.7421875 183.55859375 C157.67343853 185.64688422 159.5331806 187.77091534 161.375 189.9375 C164.43016204 193.44768617 167.65676107 196.76488168 170.9375 200.0625 C171.65462158 200.78651001 171.65462158 200.78651001 172.38623047 201.52514648 C185.29661032 214.38131748 199.85854525 225.54876687 216 234 C216.91523438 234.50273438 217.83046875 235.00546875 218.7734375 235.5234375 C223.57301055 238.07828715 227.88894155 239.66765063 233.28515625 240.4453125 C233.85105469 240.62835937 234.41695313 240.81140625 235 241 C236.12047913 244.3614374 235.92265705 244.86727642 234.8125 248.0625 C233.17882153 253.15261858 231.96373706 258.28453941 230.8125 263.5 C230.54433472 264.70281616 230.54433472 264.70281616 230.27075195 265.92993164 C229.33965345 269.92712338 229.33965345 269.92712338 229 274 C230.76685249 270.39620948 232.52626322 266.78888169 234.27954102 263.1784668 C235.1624803 261.36391854 236.05088846 259.55203458 236.93945312 257.74023438 C240.29696357 250.81655465 243.29717999 243.89530487 245.88330078 236.64575195 C247.90229556 231.86222629 250.4418297 230.07735768 255.25390625 228.05078125 C264.8210867 224.74194419 272.69822515 225.55859104 282.23828125 228.5390625 C289.73162004 232.50300693 291.94373279 240.02509461 294.875 247.5 C298.53276979 256.57093943 302.40783149 265.3630738 307 274 C305.53033294 265.69273298 304.06450919 257.49939874 301.55078125 249.4296875 C300.90191912 246.56733117 300.91096727 243.92536118 301 241 C301.90878906 240.731875 302.81757812 240.46375 303.75390625 240.1875 C325.16720426 233.51094349 341.75879639 221.2294565 358 206 C359.36945824 204.80611333 360.74405071 203.61807626 362.125 202.4375 C369.32408909 196.16590092 375.83060055 189.27418125 382 182 C383.28583984 180.49566406 383.28583984 180.49566406 384.59765625 178.9609375 C385.5446448 177.84927679 386.49125018 176.73728958 387.4375 175.625 C387.91501709 175.06490234 388.39253418 174.50480469 388.88452148 173.92773438 C391.69082032 170.6152558 394.33700472 167.22816244 396.9375 163.75 C404.47532596 154.32239494 415.79698734 148.02632426 425.8135376 141.459198 C441.80055312 130.96033388 457.23173968 120.36779845 471 107 C471.7105957 106.32050293 472.42119141 105.64100586 473.15332031 104.94091797 C487.94864758 90.75618177 500.97735004 75.97991483 511 58 C511.41991211 57.25298828 511.83982422 56.50597656 512.27246094 55.73632812 C522.17983585 37.94664854 529.26257261 19.50173638 535 0 C541.3699559 6.3699559 540.29039579 19.77099704 540.3125 28.1875 C540.31781738 29.18410645 540.32313477 30.18071289 540.32861328 31.20751953 C540.00492144 65.63810998 518.69522038 92.3339026 497 117 C503.12058997 112.64496483 508.61817977 107.78105995 514.10546875 102.671875 C516.4667288 100.49225034 518.86081476 98.38810149 521.3125 96.3125 C524.49377725 93.54108056 527.27343187 90.59840908 529.98828125 87.37109375 C531.47066699 85.62389347 532.99563206 83.91260462 534.54296875 82.22265625 C548.02256742 67.34941995 559.2163181 50.02966284 568 32 C573.00937212 39.51405818 571.04595179 54.11507284 569.51513672 62.72802734 C568.19862468 68.03708505 566.26078349 73.02779532 564 78 C563.22269531 79.7325 563.22269531 79.7325 562.4296875 81.5 C552.58947071 101.27550814 535.29466261 117.67988718 518 131 C516.10213245 132.51829404 514.20623195 134.03905083 512.3125 135.5625 C510.87550532 136.70896699 509.43820494 137.8550516 508 139 C513.01423211 136.359452 518.01218871 133.69010865 523 131 C524.16015625 130.37609375 525.3203125 129.7521875 526.515625 129.109375 C543.38519689 119.77226312 558.41176237 108.05197272 572.62890625 95.0859375 C575.93458494 92.1778116 579.41579927 89.55299214 583 87 C582.94619337 101.20495083 577.95018051 114.0410012 569 125 C568.25363281 125.98806641 568.25363281 125.98806641 567.4921875 126.99609375 C554.55432169 143.15217242 533.81426493 153.32535952 516 163 C533.63448572 160.13174027 550.99575366 151.02559842 567.05810547 143.58300781 C568.0482666 143.12506836 569.03842773 142.66712891 570.05859375 142.1953125 C570.95763428 141.77523926 571.8566748 141.35516602 572.78295898 140.92236328 C575 140 575 140 577 140 C575.16027939 152.46921747 567.66140012 162.16677546 558 170 C542.45364156 180.78861769 524.13278311 186.3489197 506 191 C507.77074917 191.02705729 509.54161711 191.04642195 511.3125 191.0625 C512.29863281 191.07410156 513.28476562 191.08570313 514.30078125 191.09765625 C517.09963849 191.12329862 517.09963849 191.12329862 520 190 C521.44650955 189.81124179 522.89816075 189.66022779 524.3515625 189.53515625 C525.20363281 189.45716797 526.05570313 189.37917969 526.93359375 189.29882812 C528.70426698 189.14334811 530.47509797 188.98965256 532.24609375 188.83789062 C537.29779229 188.37210433 542.12299809 187.64008693 547.0480957 186.41235352 C549.71725516 185.8484748 552.28500889 185.86076969 555 186 C554.13619599 193.46380654 548.288467 199.16471396 542.7890625 203.90625 C525.77301618 215.94648494 501.94107812 215.41930478 482 217 C499.82 219.475 499.82 219.475 518 222 C516.43777658 225.90555855 515.5587476 227.94918556 513 231 C512.484375 231.639375 511.96875 232.27875 511.4375 232.9375 C503.59646214 239.57222434 496.04188721 240.79338035 486 240.5625 C484.79263184 240.55025391 483.58526367 240.53800781 482.34130859 240.52539062 C471.48997269 240.2827135 460.95691922 238.78762833 450.2890625 236.875 C446.47144916 236.19513286 442.89292177 235.78595619 439 236 C439.60247559 236.15557373 440.20495117 236.31114746 440.82568359 236.47143555 C443.67588837 237.20846421 446.52553122 237.94763087 449.375 238.6875 C450.41978516 238.95860596 451.46457031 239.22971191 452.54101562 239.5090332 C458.88294612 241.16271383 465.19783768 242.88907807 471.5 244.6875 C479.26233076 246.89258856 487.0604432 248.55963793 495 250 C493.58973971 253.27381854 491.93645729 255.23527828 489.25 257.5625 C488.59515625 258.14128906 487.9403125 258.72007812 487.265625 259.31640625 C481.90209844 263.30206133 477.37157353 264.5277909 470.75 264.4375 C469.57352905 264.42722778 469.57352905 264.42722778 468.37329102 264.41674805 C453.82259647 264.02921334 439.80863368 259.22993118 426 255 C430.1940866 256.90461509 434.38928487 258.80675399 438.58544922 260.70678711 C440.00729292 261.35099489 441.42885161 261.99583216 442.85009766 262.64135742 C451.5103573 266.57422763 460.19023024 270.41095091 469 274 C466.33501154 279.713817 461.64107271 281.84453069 456 284.3125 C438.68252602 288.28108779 417.99764453 275.6643015 403 268 C409.03473911 272.34441907 415.19273769 276.46568749 421.4375 280.5 C422.53263916 281.20817871 422.53263916 281.20817871 423.64990234 281.93066406 C426.92985211 284.04501185 430.21667495 286.14428822 433.5390625 288.19140625 C434.53679687 288.80886719 435.53453125 289.42632813 436.5625 290.0625 C437.86380859 290.85333984 437.86380859 290.85333984 439.19140625 291.66015625 C439.78824219 292.10230469 440.38507813 292.54445313 441 293 C441 293.66 441 294.32 441 295 C439.5839401 295.79275148 438.16712447 296.58415312 436.75 297.375 C435.96109375 297.81585937 435.1721875 298.25671875 434.359375 298.7109375 C433.58078125 299.13632812 432.8021875 299.56171875 432 300 C431.34 300.37125 430.68 300.7425 430 301.125 C425.25972746 303.19886924 420.02719837 303.07226723 415.16796875 301.35107422 C403.92620755 296.52295529 393.16025532 289.77350354 383 283 C383.33 283.33 383.66 283.66 384 284 C384.55429687 284.5775 385.10859375 285.155 385.6796875 285.75 C394.08768249 294.36744682 403.46636792 301.67911216 413 309 C408.17100856 314.17702686 403.0884301 316.50186611 396.125 317.625 C384.13441353 316.80372695 372.99821654 305.12946592 364 298 C365.56670176 300.35005264 367.08539632 302.33180755 368.9375 304.4375 C369.54851562 305.13230469 370.15953125 305.82710937 370.7890625 306.54296875 C372.45602895 308.39548094 374.13648658 310.22848528 375.8359375 312.05078125 C376.32715088 312.57937744 376.81836426 313.10797363 377.32446289 313.65258789 C378.30128742 314.70121182 379.2821299 315.74611012 380.26733398 316.78686523 C382.67147797 319.36830472 384.64953075 321.72140414 386 325 C379.70660311 328.48079236 373.1904685 330.81962876 366 329 C359.89384857 325.34262334 354.97857996 320.20347299 350.0625 315.125 C348.74304816 313.77132606 347.42155128 312.41964131 346.09765625 311.0703125 C345.52539307 310.48008301 344.95312988 309.88985352 344.36352539 309.28173828 C343.19045942 307.88584718 343.19045942 307.88584718 342 308 C342.62044189 308.96039185 342.62044189 308.96039185 343.25341797 309.94018555 C345.13172505 312.85311755 347.00341509 315.77024485 348.875 318.6875 C349.52597656 319.69490234 350.17695312 320.70230469 350.84765625 321.74023438 C351.47285156 322.71669922 352.09804688 323.69316406 352.7421875 324.69921875 C353.3182373 325.59471436 353.89428711 326.49020996 354.48779297 327.4128418 C355.93464513 329.88818768 357.01314098 332.31260923 358 335 C354.76837935 337.89306992 352.55882384 338.45534898 348.25 338.5 C346.77273438 338.54640625 346.77273438 338.54640625 345.265625 338.59375 C336.46137935 336.99297806 331.63629652 330.68543734 326.5625 323.8125 C325.93923828 322.99330078 325.31597656 322.17410156 324.67382812 321.33007812 C320.22253712 315.44507424 320.22253712 315.44507424 319 313 C318.82186768 313.53657227 318.64373535 314.07314453 318.46020508 314.62597656 C316.55919393 320.34195045 314.64957423 326.05465784 312.6875 331.75 C312.3884375 332.61818359 312.089375 333.48636719 311.78125 334.38085938 C309.57731631 340.65323605 307.01884792 346.55529485 303.96875 352.46875 C302.84663279 354.87222519 302.84663279 354.87222519 303.13671875 357.0703125 C304.90766442 361.02889694 307.93245162 364.12498493 310.68965149 367.42926025 C311.55251428 368.46359034 312.4142688 369.49884614 313.27482605 370.53509521 C320.59423953 379.32286919 328.30082863 387.59098513 336.42871094 395.63452148 C338.26827459 397.45559087 340.09947141 399.28477504 341.9296875 401.11523438 C347.36740155 406.53471275 352.77541849 411.89366773 358.73339844 416.75024414 C359.15137695 417.16266357 359.56935547 417.57508301 360 418 C360 418.66 360 419.32 360 420 C357.42964471 421.99315711 354.55337367 423.54422161 351.75 425.1875 C350.97269531 425.66380859 350.19539063 426.14011719 349.39453125 426.63085938 C348.26337891 427.29891602 348.26337891 427.29891602 347.109375 427.98046875 C346.41811523 428.39192139 345.72685547 428.80337402 345.01464844 429.22729492 C342.53943584 430.17664633 341.43427933 429.98303138 339 429 C337.09765625 426.98828125 337.09765625 426.98828125 335.0625 424.3125 C331.2582127 419.48105512 327.26505234 414.92662972 323.0625 410.4375 C322.49474854 409.83010986 321.92699707 409.22271973 321.34204102 408.59692383 C319.25353634 406.37113768 317.15834862 404.15834862 315 402 C315.61109619 402.89307861 316.22219238 403.78615723 316.85180664 404.70629883 C319.11161407 408.01469344 321.35776254 411.33216696 323.59985352 414.65258789 C324.57302365 416.0896829 325.54990353 417.52427289 326.53051758 418.95629883 C327.93768405 421.01259823 329.33135676 423.07747435 330.72265625 425.14453125 C331.16529312 425.78526077 331.60792999 426.4259903 332.0639801 427.08613586 C333.12279666 428.6734621 334.07202376 430.3327996 335 432 C334 435 334 435 332.44946289 436.07495117 C331.4709436 436.55411987 331.4709436 436.55411987 330.47265625 437.04296875 C329.76302734 437.39423828 329.05339844 437.74550781 328.32226562 438.10742188 C327.57654297 438.46384766 326.83082031 438.82027344 326.0625 439.1875 C324.9497168 439.73954102 324.9497168 439.73954102 323.81445312 440.30273438 C318.29481679 443 318.29481679 443 316 443 C310.39 432.44 304.78 421.88 299 411 C300.29643541 414.88930624 301.59801384 418.77620142 302.91015625 422.66015625 C303.6276853 424.79424356 304.34513087 426.92835893 305.0625 429.0625 C305.42666016 430.13822266 305.79082031 431.21394531 306.16601562 432.32226562 C306.51470703 433.36189453 306.86339844 434.40152344 307.22265625 435.47265625 C307.69844116 436.88430054 307.69844116 436.88430054 308.18383789 438.32446289 C308.96076893 440.87139296 309.52729725 443.38129206 310 446 C307.08770867 447.17780436 304.16952322 448.34025075 301.25 449.5 C300.425 449.83386719 299.6 450.16773438 298.75 450.51171875 C297.95078125 450.82753906 297.1515625 451.14335938 296.328125 451.46875 C295.22839355 451.90864258 295.22839355 451.90864258 294.10644531 452.35742188 C292 453 292 453 288 453 C285.03 439.47 282.06 425.94 279 412 C279.33 417.61 279.66 423.22 280 429 C280.20300145 433.85449141 280.39581998 438.70691964 280.5625 443.5625 C280.60568359 444.77357422 280.64886719 445.98464844 280.69335938 447.23242188 C280.79732073 450.15489103 280.89953291 453.07740901 281 456 C279.24643496 456.67566318 277.48920351 457.34181628 275.73046875 458.00390625 C274.75231201 458.37588135 273.77415527 458.74785645 272.76635742 459.13110352 C266.43259477 461.12050086 260.85657964 458.36318126 255 456 C254.90480375 447.66503938 254.86622282 439.43550696 255.78125 431.13671875 C256.10975847 426.42614196 256.03760564 421.7200295 256 417 C253.25708628 428.98417259 250.52553701 440.96776675 248 453 C242.93427705 452.41399092 238.46361419 451.32728431 233.625 449.625 C231.78808594 448.99464844 231.78808594 448.99464844 229.9140625 448.3515625 C228.95242188 447.90554688 227.99078125 447.45953125 227 447 C225.67425042 443.02275125 226.94661088 440.51792357 228.30859375 436.7421875 C228.55416519 436.03853058 228.79973663 435.33487366 229.05274963 434.6098938 C229.83916851 432.36183769 230.63792884 430.11840799 231.4375 427.875 C232.23088335 425.62360392 233.02175449 423.37134379 233.8115387 421.11868286 C234.30410176 419.71660002 234.79927279 418.31543028 235.29722595 416.91525269 C236.49039693 414.02677087 236.49039693 414.02677087 237 411 C236.33411865 412.29417847 236.33411865 412.29417847 235.65478516 413.61450195 C234.00538368 416.81904612 232.35363194 420.02237391 230.70117188 423.2253418 C229.9866637 424.61107919 229.27279106 425.99714447 228.55957031 427.38354492 C227.53357672 429.37765921 226.50529421 431.37057843 225.4765625 433.36328125 C225.15877838 433.98213699 224.84099426 434.60099274 224.51358032 435.23860168 C223.11915665 437.93479154 221.68655004 440.47017493 220 443 C215.64029169 441.65150163 211.68658562 439.95092154 207.625 437.875 C206.03558594 437.06675781 206.03558594 437.06675781 204.4140625 436.2421875 C203.21910156 435.62730469 203.21910156 435.62730469 202 435 C202 430.65569522 202.54754802 429.64422771 204.81640625 426.11328125 C205.41646484 425.17419922 206.01652344 424.23511719 206.63476562 423.26757812 C207.58899414 421.80481445 207.58899414 421.80481445 208.5625 420.3125 C209.17158203 419.35666016 209.78066406 418.40082031 210.40820312 417.41601562 C214.31050944 411.35814964 218.47069273 405.60394006 223 400 C221.84635343 401.15364657 220.69338835 402.30797922 219.54296875 403.46484375 C218.5142434 404.48836036 217.4750712 405.50148285 216.42578125 406.50390625 C211.96371522 410.82035708 208.11069025 415.49699755 204.22265625 420.33203125 C201.35204197 423.77777739 198.26195286 426.92684184 195 430 C190.23448987 428.62394084 186.2751447 426.53221934 182.125 423.875 C181.53203125 423.50246094 180.9390625 423.12992188 180.328125 422.74609375 C178.8818657 421.83635 177.44041954 420.91896202 176 420 C177.28963759 417.13028673 178.58654777 415.20161962 180.921875 413.1015625 C181.52459229 412.55056885 182.12730957 411.9995752 182.74829102 411.43188477 C183.40885498 410.83561279 184.06941895 410.23934082 184.75 409.625 C191.84785668 403.09497186 198.74225911 396.37958151 205.5625 389.5625 C206.4896582 388.63969238 207.41681641 387.71688477 208.37207031 386.76611328 C213.45487349 381.67317766 218.36698222 376.50597973 223 371 C223.49185791 370.42016357 223.98371582 369.84032715 224.49047852 369.24291992 C225.85073952 367.61712772 227.17876996 365.97007976 228.5 364.3125 C229.180625 363.49942383 229.180625 363.49942383 229.875 362.66992188 C231.78130018 360.26089314 233.00540938 358.67941845 232.98046875 355.546875 C231.72208962 352.27809735 230.29942907 349.10630665 228.8125 345.9375 C225.90658067 339.52901158 223.58926151 333.04964539 221.5625 326.3125 C221.30380127 325.46357178 221.04510254 324.61464355 220.77856445 323.73999023 C219.61169968 319.74336839 218.6484216 316.2103657 219 312 C215.43376787 315.42182485 212.41516749 318.94967405 209.5 322.9375 C208.71882812 323.98679687 207.93765625 325.03609375 207.1328125 326.1171875 C205.93143965 327.74102113 204.73477629 329.36844591 203.5546875 331.0078125 C200.56666696 334.94566738 197.72271895 336.6064108 193 338 C186.8995858 338.69719019 182.31687127 338.35802396 177 335 C180.38346593 328.42895302 184.3656776 322.32930707 188.52099609 316.23022461 C189.15062256 315.30222046 189.15062256 315.30222046 189.79296875 314.35546875 C190.1696167 313.80528076 190.54626465 313.25509277 190.93432617 312.68823242 C192.09539438 310.84887694 193.05682905 308.95872913 194 307 C193.49662109 307.52432617 192.99324219 308.04865234 192.47460938 308.58886719 C190.16059309 310.98666317 187.83056704 313.36829199 185.5 315.75 C184.70851563 316.575 183.91703125 317.4 183.1015625 318.25 C177.36827997 324.07727077 172.09237488 328.94834557 163.5625 329.4375 C158.74499207 329.22767823 154.45286732 327.76851468 150 326 C150 323 150 323 151.14233398 321.54882812 C151.67157471 321.04802734 152.20081543 320.54722656 152.74609375 320.03125 C153.33245605 319.46494873 153.91881836 318.89864746 154.52294922 318.31518555 C155.15475098 317.71617432 155.78655273 317.11716309 156.4375 316.5 C162.42980628 310.67740217 168.04301451 304.75356488 173 298 C173 297.67 173 297.34 173 297 C172.29617188 297.61746094 171.59234375 298.23492188 170.8671875 298.87109375 C165.27822695 303.66475835 159.64380846 308.08997326 153.4375 312.0625 C152.84243652 312.44398193 152.24737305 312.82546387 151.63427734 313.21850586 C146.52081465 316.42561446 142.05336458 318.06149047 136 317 C131.85153925 315.25835736 127.9236191 313.19722669 124 311 C124 310.01 124 309.02 124 308 C125.6953125 306.37890625 125.6953125 306.37890625 128.125 304.5625 C132.62095879 301.10407016 136.9601098 297.52000303 141.25 293.8125 C145.46914621 290.16944084 149.70799664 286.55716036 154 283 C150.96445125 284.46506178 148.09649478 286.10969068 145.21875 287.86328125 C117.92321595 304.36410655 117.92321595 304.36410655 108.46484375 302.78515625 C103.88385166 301.32591788 99.73078599 299.02985044 96 296 C95.67 295.01 95.34 294.02 95 293 C95.47606689 292.70456299 95.95213379 292.40912598 96.44262695 292.10473633 C108.85277206 284.38375692 120.99954336 276.34284581 133 268 C132.50411377 268.23074219 132.00822754 268.46148438 131.49731445 268.69921875 C121.74248434 273.21672845 111.92578061 277.58427884 101.9375 281.5625 C101.10710205 281.90861328 100.2767041 282.25472656 99.42114258 282.61132812 C92.33098926 285.36817931 85.28959185 286.3248866 77.9140625 284.046875 C77.15867187 283.61890625 76.40328125 283.1909375 75.625 282.75 C74.81546875 282.29496094 74.0059375 281.83992188 73.171875 281.37109375 C70.59138217 279.74204162 68.19836133 278.12508262 66 276 C66 275.34 66 274.68 66 274 C70.01594638 272.25807842 74.03206937 270.51656479 78.04833984 268.77539062 C79.40776063 268.18597799 80.76713736 267.59646372 82.12646484 267.00683594 C91.40767572 262.98108496 100.69790551 258.9772847 110 255 C109.42314453 255.17958252 108.84628906 255.35916504 108.25195312 255.54418945 C66.71649725 268.26339674 66.71649725 268.26339674 53.11328125 262.8515625 C50.7974938 261.40467381 48.95101616 259.90364049 47 258 C46.07767578 257.17628906 46.07767578 257.17628906 45.13671875 256.3359375 C43.4375 254.75 43.4375 254.75 41 252 C41 251.34 41 250.68 41 250 C42.5931604 249.63032104 42.5931604 249.63032104 44.21850586 249.25317383 C48.24734674 248.31691111 52.27462394 247.37405944 56.30151367 246.42944336 C58.02799687 246.02536602 59.754872 245.62295878 61.48217773 245.22241211 C73.11407128 242.5235419 84.58356325 239.50271781 96 236 C89.06753521 236.60506286 82.20198701 237.51999778 75.31518555 238.51171875 C40.3033098 243.48475858 40.3033098 243.48475858 30 237 C28.948125 236.443125 27.89625 235.88625 26.8125 235.3125 C22.96528439 232.14923383 20.37581217 228.36408051 18 224 C18 223.34 18 222.68 18 222 C21.99937765 221.370977 25.9996142 220.7475766 30 220.125 C31.10601562 219.95097656 32.21203125 219.77695312 33.3515625 219.59765625 C42.21516219 218.22227009 51.09596425 217.07397704 60 216 C58.89188965 215.95512451 57.7837793 215.91024902 56.64208984 215.86401367 C52.46296513 215.69154504 48.28467612 215.50312681 44.10644531 215.31030273 C42.31073231 215.22956948 40.51482874 215.15295084 38.71875 215.08081055 C19.94302862 214.32119012 2.24976762 212.66966623 -12.0859375 199.08984375 C-15.6105901 195.24149857 -19 191.36166365 -19 186 C-13.54048169 186.57121721 -8.12800516 187.26498011 -2.70385742 188.10424805 C8.19516575 189.77681423 18.98426413 190.63490704 30 191 C28.09154297 190.50693359 28.09154297 190.50693359 26.14453125 190.00390625 C2.2151466 183.61646356 -23.50434135 175.11937381 -37 152.8125 C-39.31205539 148.59639899 -41.0371472 144.70728035 -42 140 C-37.08945713 140.62708308 -33.17874271 142.75368742 -28.8125 144.9375 C-12.61021471 152.81626463 4.46349312 159.72746923 22 164 C20.83726562 163.41734375 19.67453125 162.8346875 18.4765625 162.234375 C2.54902429 154.12803631 -12.60312307 144.91091484 -26 133 C-26.97646484 132.14728516 -26.97646484 132.14728516 -27.97265625 131.27734375 C-36.28312997 123.55134291 -41.11967195 113.50740517 -45 103 C-45.37253906 102.00355469 -45.74507812 101.00710938 -46.12890625 99.98046875 C-46.99601367 97.01363933 -47.20808561 94.69916745 -47.125 91.625 C-47.10695312 90.75101562 -47.08890625 89.87703125 -47.0703125 88.9765625 C-47.04710937 88.32429688 -47.02390625 87.67203125 -47 87 C-43.59039464 89.91267691 -40.18590781 92.83001014 -36.81640625 95.7890625 C-17.2086989 112.93792552 4.10906636 126.63834886 27 139 C23.66280549 136.12437204 20.31819541 133.26287464 16.921875 130.45703125 C-8.1643782 109.66247165 -30.45134319 86.59008104 -35 53 C-35.09009866 50.66803457 -35.13011776 48.33369972 -35.125 46 C-35.12757813 44.824375 -35.13015625 43.64875 -35.1328125 42.4375 C-35.00783333 39.20274496 -34.6098924 36.17531283 -34 33 C-33.34 33 -32.68 33 -32 33 C-30.93774414 34.49023438 -30.93774414 34.49023438 -29.78515625 36.59375 C-29.35178955 37.36920166 -28.91842285 38.14465332 -28.47192383 38.94360352 C-28.00681396 39.78721436 -27.5417041 40.6308252 -27.0625 41.5 C-19.76418814 54.41538164 -11.62851677 66.68844981 -2 78 C-1.38640625 78.72445312 -0.7728125 79.44890625 -0.140625 80.1953125 C16.9294881 100.51964299 16.9294881 100.51964299 38 116 C37.52433594 115.51015625 37.04867187 115.0203125 36.55859375 114.515625 C20.56139801 97.42838093 6.1486345 77.49204512 -1 55 C-1.31710938 54.08476562 -1.63421875 53.16953125 -1.9609375 52.2265625 C-6.32773789 37.28329143 -7.10765101 14.21530202 0 0 Z " fill="#020202" transform="translate(244,291)"/>
<path d="M0 0 C2.89616878 1.69728961 4.67215592 3.53899854 6.83203125 6.1015625 C7.52941406 6.91882813 8.22679687 7.73609375 8.9453125 8.578125 C9.72455078 9.51785156 9.72455078 9.51785156 10.51953125 10.4765625 C9.03946102 13.55000977 7.36258589 16.44287018 5.58203125 19.3515625 C3.37788526 22.99460086 1.34160771 26.62995663 -0.48046875 30.4765625 C-1.14046875 30.4765625 -1.80046875 30.4765625 -2.48046875 30.4765625 C-3.7754007 28.08244413 -5.06649047 25.6863837 -6.35546875 23.2890625 C-6.72027344 22.61552734 -7.08507812 21.94199219 -7.4609375 21.24804688 C-8.48791854 19.33412767 -9.48865756 17.40889333 -10.48046875 15.4765625 C-10.9496875 14.57550781 -11.41890625 13.67445313 -11.90234375 12.74609375 C-12.48046875 10.4765625 -12.48046875 10.4765625 -11.50390625 8.34375 C-10.95992188 7.68632813 -10.4159375 7.02890625 -9.85546875 6.3515625 C-9.32695312 5.68898438 -8.7984375 5.02640625 -8.25390625 4.34375 C-3.43898299 -0.72570665 -3.43898299 -0.72570665 0 0 Z " fill="#F8F8F6" transform="translate(513.48046875,540.5234375)"/>
<path d="M0 0 C0 4.04895782 -2.03312644 6.084841 -4.375 9.1875 C-10.02524114 16.85993271 -15.03817647 24.87105507 -20 33 C-20.66 32.67 -21.32 32.34 -22 32 C-22 31.34 -22 30.68 -22 30 C-23.65 30.33 -25.3 30.66 -27 31 C-26.195625 30.071875 -25.39125 29.14375 -24.5625 28.1875 C-21.82941304 25.00964182 -19.19178274 21.76409244 -16.5625 18.5 C-13.41147956 14.62874632 -10.16325525 11.03385821 -6.57421875 7.5703125 C-4.19146803 5.19347431 -2.10911276 2.62041282 0 0 Z " fill="#EAE7E6" transform="translate(467,689)"/>
<path d="M0 0 C4.11025501 4.06345894 8.10359272 8.22670043 12.0625 12.4375 C12.67416016 13.08009766 13.28582031 13.72269531 13.91601562 14.38476562 C17.37185467 18.06476721 20.33940949 21.70722679 23 26 C20.66666667 26 18.33333333 26 16 26 C14.07714844 23.82861328 14.07714844 23.82861328 12.109375 20.8203125 C11.40039062 19.74652344 10.69140625 18.67273438 9.9609375 17.56640625 C9.59838867 17.00195801 9.23583984 16.43750977 8.86230469 15.85595703 C7.75314745 14.12989803 6.62480483 12.41776559 5.4921875 10.70703125 C0 2.30780678 0 2.30780678 0 0 Z " fill="#EDEAE8" transform="translate(557,690)"/>
<path d="M0 0 C1.1446875 0.2475 1.1446875 0.2475 2.3125 0.5 C5.03596236 1.09145396 5.03596236 1.09145396 8 1 C10.09309864 2.54947441 12.03958919 4.1101626 14 5.8125 C14.53367187 6.26431641 15.06734375 6.71613281 15.6171875 7.18164062 C18.17672057 9.36233733 20.67455241 11.56958429 23 14 C18.21933697 12.23115468 13.76084731 9.91681238 9.25 7.5625 C8.47011719 7.16740234 7.69023437 6.77230469 6.88671875 6.36523438 C6.14550781 5.97787109 5.40429688 5.59050781 4.640625 5.19140625 C3.96547852 4.84279541 3.29033203 4.49418457 2.59472656 4.13500977 C1 3 1 3 0 0 Z " fill="#E3E1E0" transform="translate(250,417)"/>
<path d="M0 0 C1.32 0.66 2.64 1.32 4 2 C-0.17854145 7.5713886 -5.19990896 12.12671887 -11 16 C-11.99 16 -12.98 16 -14 16 C-13.40832031 15.34773438 -12.81664062 14.69546875 -12.20703125 14.0234375 C-8.04481368 9.41987549 -3.92330844 4.8092168 0 0 Z " fill="#E2DFDD" transform="translate(754,392)"/>
<path d="M0 0 C3.55685722 3.50558721 6.96283047 7.10553239 10.3125 10.8125 C11.19550781 11.78832031 12.07851563 12.76414062 12.98828125 13.76953125 C13.65214844 14.50558594 14.31601562 15.24164063 15 16 C10.96337642 16 10.08798941 14.54368281 7.1875 11.8125 C3.53661219 8.42353532 -0.14101489 5.14811943 -4 2 C-2.68 1.34 -1.36 0.68 0 0 Z " fill="#E1DFDE" transform="translate(269,392)"/>
<path d="M0 0 C0.66 0.33 1.32 0.66 2 1 C0.41792503 2.75115168 -1.16561229 4.50094278 -2.75 6.25 C-3.63171875 7.22453125 -4.5134375 8.1990625 -5.421875 9.203125 C-7.56498967 11.5280797 -9.74365438 13.78582907 -12 16 C-12 15.34 -12 14.68 -12 14 C-13.32 13.67 -14.64 13.34 -16 13 C-15.01257813 12.22914063 -14.02515625 11.45828125 -13.0078125 10.6640625 C-11.71348671 9.65111188 -10.41921889 8.63808719 -9.125 7.625 C-8.47402344 7.11710938 -7.82304687 6.60921875 -7.15234375 6.0859375 C-6.52714844 5.59609375 -5.90195312 5.10625 -5.2578125 4.6015625 C-4.6817627 4.15119629 -4.10571289 3.70083008 -3.51220703 3.23681641 C-1.86533246 1.93178492 -1.86533246 1.93178492 0 0 Z " fill="#E7E6E6" transform="translate(418,586)"/>
<path d="M0 0 C1.38740513 4.16221539 -0.09983458 7.00063911 -1.5625 10.9375 C-1.92311523 12.01161133 -1.92311523 12.01161133 -2.29101562 13.10742188 C-4.18952422 18.26734825 -6.15241522 20.39603791 -11 23 C-9.44347945 17.6462535 -7.0182491 12.99849053 -4.375 8.125 C-3.95476562 7.34125 -3.53453125 6.5575 -3.1015625 5.75 C-2.0718978 3.83107943 -1.03652433 1.91522397 0 0 Z " fill="#D4D0CE" transform="translate(482,698)"/>
<path d="M0 0 C3.35044034 1.11681345 4.14916343 2.0436896 6.375 4.6875 C7.28572266 5.76064453 7.28572266 5.76064453 8.21484375 6.85546875 C9.09849609 7.91701172 9.09849609 7.91701172 10 9 C10.51691406 9.61488281 11.03382813 10.22976563 11.56640625 10.86328125 C12.7171727 12.23698821 13.85958928 13.61768397 15 15 C13 16 13 16 10.64453125 15.47265625 C7.13774198 13.51983564 5.61117446 10.82856941 3.6875 7.4375 C3.14899414 6.53354492 3.14899414 6.53354492 2.59960938 5.61132812 C0 1.19941964 0 1.19941964 0 0 Z " fill="#E2DFDE" transform="translate(584,596)"/>
<path d="M0 0 C0.33 0.66 0.66 1.32 1 2 C0.14453125 3.875 0.14453125 3.875 -1.1875 6 C-1.61417969 6.70125 -2.04085938 7.4025 -2.48046875 8.125 C-4.17305277 10.21353555 -5.59279261 10.88014606 -8 12 C-10.22816986 14.53442406 -10.22816986 14.53442406 -12 17 C-12.99 16.67 -13.98 16.34 -15 16 C-14.08476562 15.09636719 -13.16953125 14.19273437 -12.2265625 13.26171875 C-11.02590942 12.07044577 -9.82539585 10.87903217 -8.625 9.6875 C-8.02171875 9.09259766 -7.4184375 8.49769531 -6.796875 7.88476562 C-6.21679688 7.30791016 -5.63671875 6.73105469 -5.0390625 6.13671875 C-4.50490723 5.60780029 -3.97075195 5.07888184 -3.42041016 4.53393555 C-1.78498535 2.8489902 -1.78498535 2.8489902 0 0 Z " fill="#DCDADA" transform="translate(439,595)"/>
<path d="M0 0 C2.62451617 2.62451617 2.5832868 4.4877828 3.125 8.125 C3.29257812 9.22070312 3.46015625 10.31640625 3.6328125 11.4453125 C3.75398437 12.28835938 3.87515625 13.13140625 4 14 C3.34 14 2.68 14 2 14 C2 15.65 2 17.3 2 19 C1.67 19 1.34 19 1 19 C0.17648136 12.61773055 -0.12086218 6.43255401 0 0 Z " fill="#BBB9BA" transform="translate(522,701)"/>
<path d="M0 0 C6.6 0 13.2 0 20 0 C19.67 0.66 19.34 1.32 19 2 C16.27734375 2.4140625 16.27734375 2.4140625 12.9375 2.625 C11.83277344 2.69976562 10.72804688 2.77453125 9.58984375 2.8515625 C8.73519531 2.90054687 7.88054687 2.94953125 7 3 C7 2.34 7 1.68 7 1 C4.69 1 2.38 1 0 1 C0 0.67 0 0.34 0 0 Z " fill="#B3B1B2" transform="translate(285,506)"/>
<path d="M0 0 C2 0 2 0 4.5625 2.3125 C7 5 7 5 8 8 C6.02 8 4.04 8 2 8 C0.74335022 5.09399739 0 3.20395416 0 0 Z " fill="#DDDAD8" transform="translate(494,535)"/>
<path d="M0 0 C3.91939465 3.80411834 7.49102731 7.81576108 11 12 C10.34 12 9.68 12 9 12 C8.67 12.66 8.34 13.32 8 14 C6.66101601 12.04532248 5.32870953 10.0866421 4 8.125 C3.2575 7.03445313 2.515 5.94390625 1.75 4.8203125 C0 2 0 2 0 0 Z " fill="#D4D1D1" transform="translate(557,690)"/>
<path d="M0 0 C2.48627517 3.0622744 4.09989404 6.1457054 5.6875 9.75 C6.12449219 10.73484375 6.56148437 11.7196875 7.01171875 12.734375 C7.33785156 13.48203125 7.66398438 14.2296875 8 15 C7.01 15.66 6.02 16.32 5 17 C4.35035977 15.10546779 3.70544885 13.20931351 3.0625 11.3125 C2.70285156 10.25675781 2.34320312 9.20101562 1.97265625 8.11328125 C1.12793482 5.40949417 0.49106215 2.78613158 0 0 Z " fill="#D7D3D2" transform="translate(541,698)"/>
<path d="M0 0 C0.66 0.33 1.32 0.66 2 1 C-1.70771762 5.899484 -5.55712038 9.13532652 -11 12 C-11.66 11.67 -12.32 11.34 -13 11 C-12.22914063 10.37351562 -11.45828125 9.74703125 -10.6640625 9.1015625 C-9.15972656 7.87566406 -9.15972656 7.87566406 -7.625 6.625 C-6.62726562 5.81289063 -5.62953125 5.00078125 -4.6015625 4.1640625 C-2.03639494 2.09734084 -2.03639494 2.09734084 0 0 Z " fill="#D4D2D0" transform="translate(764,419)"/>
<path d="M0 0 C-6.435 2.97 -6.435 2.97 -13 6 C-13.33 5.34 -13.66 4.68 -14 4 C-14.66 3.67 -15.32 3.34 -16 3 C-13.89936424 2.30178583 -11.79434263 1.61675528 -9.6875 0.9375 C-8.51574219 0.55464844 -7.34398437 0.17179688 -6.13671875 -0.22265625 C-3 -1 -3 -1 0 0 Z " fill="#CBCACB" transform="translate(355,546)"/>
<path d="M0 0 C0.125 2.875 0.125 2.875 0 6 C-0.66 6.66 -1.32 7.32 -2 8 C-3.32 8 -4.64 8 -6 8 C-5.57004265 4.99029853 -3.66008917 0 0 0 Z " fill="#E0DEDD" transform="translate(529,535)"/>
<path d="M0 0 C5.15171623 -0.09038099 9.91913204 0.15318867 15 1 C14.01 1.33 13.02 1.66 12 2 C12 2.66 12 3.32 12 4 C10.3733152 3.71788123 8.74867104 3.42397625 7.125 3.125 C5.76761719 2.88136719 5.76761719 2.88136719 4.3828125 2.6328125 C2 2 2 2 0 0 Z " fill="#B9B8B7" transform="translate(681,526)"/>
<path d="M0 0 C0 3.83764027 -1.26535335 5.11486085 -3.5 8.1875 C-4.1496875 9.08855469 -4.799375 9.98960937 -5.46875 10.91796875 C-5.9740625 11.60503906 -6.479375 12.29210937 -7 13 C-8.32 12.67 -9.64 12.34 -11 12 C-7.37 8.04 -3.74 4.08 0 0 Z " fill="#D0CECE" transform="translate(467,689)"/>
<path d="M0 0 C0.33 0 0.66 0 1 0 C1.36463732 1.74784829 1.7163078 3.49840502 2.0625 5.25 C2.25972656 6.22453125 2.45695313 7.1990625 2.66015625 8.203125 C2.98397535 10.868119 2.85503199 12.48871723 2 15 C-2.23632385 7.12253829 -2.23632385 7.12253829 -1.25 2.4375 C-0.63125 1.2309375 -0.63125 1.2309375 0 0 Z " fill="#D4D2D1" transform="translate(549,552)"/>
<path d="M0 0 C1.66519519 0.34060811 3.33157466 0.67558396 5 1 C5 1.33 5 1.66 5 2 C-0.28 2 -5.56 2 -11 2 C-11 1.67 -11 1.34 -11 1 C-3.74306839 -1.37245841 -3.74306839 -1.37245841 0 0 Z " fill="#B9B9B9" transform="translate(756,481)"/>
<path d="M0 0 C0.99 0 1.98 0 3 0 C3 1.32 3 2.64 3 4 C0 6.25 0 6.25 -3 8 C-1.125 2.25 -1.125 2.25 0 0 Z " fill="#E4E0DD" transform="translate(474,713)"/>
<path d="M0 0 C2.5 2.3125 2.5 2.3125 5 5 C5 5.99 5 6.98 5 8 C3.02 6.35 1.04 4.7 -1 3 C-0.67 2.01 -0.34 1.02 0 0 Z " fill="#EAE9E7" transform="translate(625,606)"/>
<path d="M0 0 C0 0.99 0 1.98 0 3 C-1.53125 4.38671875 -1.53125 4.38671875 -3.5 5.6875 C-4.47453125 6.34298828 -4.47453125 6.34298828 -5.46875 7.01171875 C-5.9740625 7.33785156 -6.479375 7.66398438 -7 8 C-7.66 7.34 -8.32 6.68 -9 6 C-6.03 4.02 -3.06 2.04 0 0 Z " fill="#CECDCD" transform="translate(398,572)"/>
<path d="M0 0 C-3.25125017 2.16750011 -5.14533632 2.68533358 -9 3 C-11.375 2.0625 -11.375 2.0625 -13 1 C-8.59085217 -0.10228696 -4.51617599 -0.07654536 0 0 Z " fill="#B3B2B2" transform="translate(343,526)"/>
<path d="M0 0 C3.96 0 7.92 0 12 0 C9.64046906 2.35953094 8.22104383 2.49141413 5 3 C5 2.34 5 1.68 5 1 C3.35 1 1.7 1 0 1 C0 0.67 0 0.34 0 0 Z " fill="#D9D8D8" transform="translate(322,528)"/>
<path d="M0 0 C0.66 0.66 1.32 1.32 2 2 C1.68134222 5.29279709 0.45484649 6.86535088 -2 9 C-1.125 2.25 -1.125 2.25 0 0 Z " fill="#3A3B3D" transform="translate(244,291)"/>
</svg>
